<svg xmlns="http://www.w3.org/2000/svg" xmlns:xlink="http://www.w3.org/1999/xlink" width="20.88" height="20.41" viewBox="0 0 20.88 20.41">
  <defs>
    <style>
      .cls-1 {
        fill-rule: evenodd;
        filter: url(#filter);
      }
    </style>
    <filter id="filter" x="1452.06" y="2493.59" width="20.88" height="20.41" filterUnits="userSpaceOnUse">
      <feFlood result="flood" flood-color="#929292"/>
      <feComposite result="composite" operator="in" in2="SourceGraphic"/>
      <feBlend result="blend" in2="SourceGraphic"/>
    </filter>
  </defs>
  <path id="Forma_1" data-name="Forma 1" class="cls-1" d="M1472.46,2509.74l-3.22-3.16a1.7,1.7,0,0,0-2.37.04l-1.62,1.59c-0.1-.05-0.21-0.11-0.32-0.17a15.08,15.08,0,0,1-6.73-6.61c-0.06-.1-0.12-0.21-0.18-0.3l1.09-1.07,0.54-.53a1.625,1.625,0,0,0,.04-2.32l-3.22-3.16a1.7,1.7,0,0,0-2.37.04l-0.91.9,0.03,0.02a4.906,4.906,0,0,0-.75,1.3,5.474,5.474,0,0,0-.33,1.31c-0.43,3.46,1.18,6.62,5.56,10.91,6.04,5.93,10.91,5.48,11.12,5.46a5.256,5.256,0,0,0,1.34-.33,5.132,5.132,0,0,0,1.32-.73l0.02,0.02,0.92-.89A1.625,1.625,0,0,0,1472.46,2509.74Z" transform="translate(-1452.06 -2493.59)"/>
</svg>
