<svg xmlns="http://www.w3.org/2000/svg" xmlns:xlink="http://www.w3.org/1999/xlink" width="21" height="15.53" viewBox="0 0 21 15.53">
  <defs>
    <style>
      .cls-1 {
        fill-rule: evenodd;
        filter: url(#filter);
      }
    </style>
    <filter id="filter" x="1452" y="2419.78" width="21" height="15.53" filterUnits="userSpaceOnUse">
      <feFlood result="flood" flood-color="#929292"/>
      <feComposite result="composite" operator="in" in2="SourceGraphic"/>
      <feBlend result="blend" in2="SourceGraphic"/>
    </filter>
  </defs>
  <path id="Forma_1" data-name="Forma 1" class="cls-1" d="M1473,2432.73a2.514,2.514,0,0,1-.34,1.25l-6.63-7.32,6.56-5.67a2.514,2.514,0,0,1,.41,1.38v10.36Zm-10.5-4.74,9.13-7.88a2.573,2.573,0,0,0-1.26-.33h-15.75a2.563,2.563,0,0,0-1.25.33Zm2.54-.48-2.11,1.82a0.658,0.658,0,0,1-.86,0l-2.11-1.82-6.72,7.41a2.592,2.592,0,0,0,1.38.4h15.75a2.6,2.6,0,0,0,1.39-.4Zm-12.63-6.52a2.514,2.514,0,0,0-.41,1.38v10.36a2.514,2.514,0,0,0,.34,1.25l6.63-7.33Z" transform="translate(-1452 -2419.78)"/>
</svg>
